
<?xml version="1.0" encoding="UTF-8"?>
<!DOCTYPE svg PUBLIC "-//W3C//DTD SVG 1.1//EN" "http://www.w3.org/Graphics/SVG/1.1/DTD/svg11.dtd">
<svg xmlns="http://www.w3.org/2000/svg" version="1.1" width="225px" height="225px" style="shape-rendering:geometricPrecision; text-rendering:geometricPrecision; image-rendering:optimizeQuality; fill-rule:evenodd; clip-rule:evenodd" xmlns:xlink="http://www.w3.org/1999/xlink">

<g><path style="opacity:1" fill="#020202" d="M 15.5,215.5 C 13.1667,215.5 10.8333,215.5 8.5,215.5C 8.5,171.833 8.5,128.167 8.5,84.5C 11.5274,85.5089 14.5274,85.5089 17.5,84.5C 18.7567,82.3211 20.2567,80.3211 22,78.5C 22.1916,72.9181 21.6916,67.4181 20.5,62C 29.8209,63.4735 37.6542,60.9735 44,54.5C 44.1725,50.1289 44.6725,45.7956 45.5,41.5C 50.3982,43.0707 55.3982,43.5707 60.5,43C 63.3388,41.0797 66.3388,39.4131 69.5,38C 71.4012,33.4657 73.4012,28.9657 75.5,24.5C 79.6058,26.6363 83.7725,28.6363 88,30.5C 91.4429,29.431 94.9429,28.5976 98.5,28C 100.479,24.5283 102.812,21.3617 105.5,18.5C 110.632,21.8294 116.132,23.8294 122,24.5C 127.721,24.4824 132.388,22.149 136,17.5C 139.13,19.628 141.963,22.128 144.5,25C 151.196,25.8634 157.863,26.5301 164.5,27C 157.43,17.7901 148.097,12.1235 136.5,10C 143.777,8.53276 151.111,8.19942 158.5,9C 169.89,10.278 181.224,11.9447 192.5,14C 199.826,14.4997 207.159,14.6663 214.5,14.5C 214.666,21.175 214.5,27.8417 214,34.5C 208.568,28.8577 202.401,28.0244 195.5,32C 188.688,39.2229 189.022,46.2229 196.5,53C 200.843,55.4396 205.343,55.9396 210,54.5C 209.801,57.4391 208.968,60.2724 207.5,63C 194.159,61.0666 180.825,58.7333 167.5,56C 167.043,55.586 166.709,55.086 166.5,54.5C 167.785,51.9795 168.452,49.3128 168.5,46.5C 129.609,40.4725 94.6085,49.3059 63.5,73C 51.5115,84.0009 43.1782,97.3343 38.5,113C 43.8212,110.062 48.9879,106.562 54,102.5C 55.6738,98.9793 56.8404,95.3127 57.5,91.5C 61.7644,92.9819 66.0977,93.8153 70.5,94C 72.7173,92.7246 75.0506,91.7246 77.5,91C 79.069,88.0165 80.7357,85.1832 82.5,82.5C 84.6025,84.7702 87.1025,86.4369 90,87.5C 93.1451,86.5887 96.3117,85.7554 99.5,85C 101.494,82.1726 103.828,79.6726 106.5,77.5C 109.317,79.8167 111.984,82.3167 114.5,85C 117.167,85.6667 119.833,85.6667 122.5,85C 124.321,83.2567 126.321,81.7567 128.5,80.5C 131.325,83.4952 133.992,86.6619 136.5,90C 140.869,91.2666 144.703,93.4333 148,96.5C 148.104,84.8731 143.937,75.0397 135.5,67C 141.299,68.9061 146.632,71.9061 151.5,76C 161.864,86.0294 171.864,96.3627 181.5,107C 187.138,112.15 193.138,116.817 199.5,121C 194.581,124.042 189.748,127.209 185,130.5C 181.012,118.921 173.512,115.754 162.5,121C 155.688,128.223 156.022,135.223 163.5,142C 165.664,142.914 167.664,144.081 169.5,145.5C 167.169,147.66 164.669,149.66 162,151.5C 152.316,141.317 142.816,130.983 133.5,120.5C 135.524,118.642 137.691,116.975 140,115.5C 140.688,114.668 140.521,114.002 139.5,113.5C 105.471,100.399 79.4711,109.732 61.5,141.5C 70.2464,143.498 78.5797,142.498 86.5,138.5C 87.3214,141.447 87.8214,144.447 88,147.5C 91.3333,150.167 94.6667,152.833 98,155.5C 100.687,154.287 103.52,153.62 106.5,153.5C 106.176,157.555 106.509,161.555 107.5,165.5C 110.328,167.748 113.328,169.748 116.5,171.5C 117.833,170.833 119.167,170.167 120.5,169.5C 124.062,177.801 129.729,179.801 137.5,175.5C 139.316,176.815 140.983,178.315 142.5,180C 145.554,180.821 148.554,180.655 151.5,179.5C 144.978,169.891 135.978,163.725 124.5,161C 133.147,159.219 141.814,159.219 150.5,161C 169.568,165.678 188.901,168.511 208.5,169.5C 205.727,174.713 203.227,180.046 201,185.5C 191.075,177.66 183.075,179.327 177,190.5C 175.712,198.428 178.879,203.594 186.5,206C 190.241,206.502 193.908,206.502 197.5,206C 196.407,208.443 195.407,210.943 194.5,213.5C 193.667,213.833 192.833,214.167 192,214.5C 179.5,212 167,209.5 154.5,207C 153.978,206.439 153.645,205.772 153.5,205C 154.861,202.27 155.361,199.437 155,196.5C 145.265,200.239 135.431,200.406 125.5,197C 120.387,195.277 115.387,193.277 110.5,191C 101.665,185.415 92.665,180.081 83.5,175C 58.1784,164.885 38.345,171.385 24,194.5C 20.4715,201.26 17.6381,208.26 15.5,215.5 Z"/></g>
<g><path style="opacity:1" fill="#2b2b2b" d="M 8.5,84.5 C 8.5,128.167 8.5,171.833 8.5,215.5C 10.8333,215.5 13.1667,215.5 15.5,215.5C 13.0521,216.473 10.3854,216.806 7.5,216.5C 7.16795,172.33 7.50128,128.33 8.5,84.5 Z"/></g>
</svg>

